<svg width="19" height="19" viewBox="0 0 19 19" fill="none" xmlns="http://www.w3.org/2000/svg">
<g clip-path="url(#clip0_211_111)">
<path d="M16.073 15.9149H13.2779V11.5807C13.2779 10.5472 13.2593 9.21677 11.8241 9.21677C10.3684 9.21677 10.1456 10.3428 10.1456 11.5055V15.9146H7.3505V7.00182H10.0338V8.21984H10.0714C10.3399 7.76523 10.728 7.39124 11.1942 7.1377C11.6604 6.88416 12.1874 6.76059 12.7189 6.78013C15.5519 6.78013 16.0742 8.62516 16.0742 11.0255L16.073 15.9149ZM4.19668 5.7835C3.87587 5.78357 3.56224 5.68943 3.29546 5.513C3.02869 5.33657 2.82075 5.08577 2.69794 4.79233C2.57511 4.49887 2.54292 4.17595 2.60545 3.8644C2.66798 3.55284 2.82242 3.26664 3.04923 3.04199C3.27604 2.81734 3.56503 2.66432 3.87966 2.6023C4.1943 2.54027 4.52043 2.57202 4.81685 2.69352C5.11326 2.81503 5.36662 3.02084 5.5449 3.28493C5.72318 3.54901 5.81837 3.85951 5.81843 4.17716C5.81847 4.38807 5.77654 4.59692 5.69507 4.79179C5.61359 4.98666 5.49415 5.16374 5.34356 5.3129C5.19296 5.46206 5.01416 5.58039 4.81738 5.66114C4.6206 5.74189 4.40969 5.78347 4.19668 5.7835ZM5.59423 15.9149H2.7962V7.00182H5.59423V15.9149ZM17.4665 0.00127256H1.39166C1.02681 -0.00280425 0.67523 0.13671 0.414212 0.389157C0.153192 0.641605 0.00408663 0.986332 -0.000366211 1.34759V17.3301C0.00393423 17.6916 0.152952 18.0365 0.413962 18.2892C0.674973 18.5419 1.02663 18.6817 1.39166 18.6779H17.4665C17.8323 18.6824 18.1849 18.543 18.447 18.2904C18.709 18.0376 18.859 17.6923 18.864 17.3301V1.34643C18.8588 0.984459 18.7088 0.639343 18.4467 0.386902C18.1847 0.13446 17.8321 -0.00465504 17.4665 0.000118933" fill="#005FB4"/>
</g>
<defs>
<clipPath id="clip0_211_111">
<rect width="18.8889" height="18.8889" fill="white"/>
</clipPath>
</defs>
</svg>
