<svg width="100" height="100" viewBox="0 0 100 100" fill="none" xmlns="http://www.w3.org/2000/svg">
<rect width="100" height="100" rx="50" fill="white"/>
<g clip-path="url(#clip0_211_138)">
<path d="M16.6649 52.3297C22.0026 52.3297 26.3297 48.0026 26.3297 42.6649C26.3297 37.3271 22.0026 33 16.6649 33C11.3271 33 7 37.3271 7 42.6649C7 48.0026 11.3271 52.3297 16.6649 52.3297Z" fill="#26A43C"/>
<path d="M38.706 52.3317C44.0437 52.3317 48.3709 48.0046 48.3709 42.6668C48.3709 37.3291 44.0437 33.002 38.706 33.002C33.3682 33.002 29.0411 37.3291 29.0411 42.6668C29.0411 48.0046 33.3682 52.3317 38.706 52.3317Z" fill="#00B5CD"/>
<path d="M60.5963 52.3727C65.934 52.3727 70.2611 48.0456 70.2611 42.7078C70.2611 37.3701 65.934 33.043 60.5963 33.043C55.2585 33.043 50.9314 37.3701 50.9314 42.7078C50.9314 48.0456 55.2585 52.3727 60.5963 52.3727Z" fill="#8AACBC"/>
<path d="M82.6707 52.339C88.0085 52.339 92.3356 48.0119 92.3356 42.6741C92.3356 37.3364 88.0085 33.0093 82.6707 33.0093C77.333 33.0093 73.0059 37.3364 73.0059 42.6741C73.0059 48.0119 77.333 52.339 82.6707 52.339Z" fill="#FFD200"/>
<path d="M19.3772 66.436C19.101 66.5172 18.824 66.354 18.7428 66.0778C18.6941 65.9145 18.6453 65.7358 18.5966 65.54C18.4821 65.1981 18.3683 64.7432 18.2221 64.1729H15.0655C14.8868 64.7423 14.8047 65.1981 14.691 65.54C14.6423 65.7358 14.5935 65.9145 14.5448 66.0778C14.4636 66.354 14.2028 66.5172 13.8941 66.436C13.6179 66.354 13.4547 66.0778 13.5359 65.8008L16.1394 56.3634C16.2043 56.1189 16.3993 55.9727 16.6438 55.9727C16.8883 55.9727 17.0833 56.1189 17.1482 56.3634L19.7517 65.8008C19.8329 66.0778 19.6867 66.354 19.3772 66.436ZM16.643 58.4469C16.301 59.6183 15.7974 61.5224 15.3571 63.1332H17.9281C17.4886 61.5224 16.9517 59.6183 16.6422 58.4469H16.643Z" fill="#26A43C"/>
<path d="M85.318 66.436C85.0418 66.5172 84.7648 66.354 84.6835 66.0778C84.6348 65.9145 84.5861 65.7358 84.5373 65.54C84.4236 65.1981 84.3099 64.7432 84.1629 64.1729H81.0062C80.8267 64.7423 80.7455 65.1981 80.6317 65.54C80.583 65.7358 80.5343 65.9145 80.4855 66.0778C80.4043 66.354 80.1435 66.5172 79.8349 66.436C79.5579 66.354 79.3954 66.0778 79.4766 65.8008L82.0801 56.3634C82.1459 56.1189 82.3408 55.9727 82.5845 55.9727C82.8282 55.9727 83.024 56.1189 83.089 56.3634L85.6924 65.8008C85.7737 66.0778 85.6274 66.354 85.318 66.436ZM82.5845 58.4469C82.2426 59.6183 81.7381 61.5224 81.2986 63.1332H83.8696C83.4301 61.5224 82.8932 59.6183 82.5837 58.4469H82.5845Z" fill="#FFD200"/>
<path d="M37.9993 56.0544C39.0895 55.7457 40.2121 56.2501 40.7815 57.2095C40.9277 57.454 40.8465 57.7789 40.5866 57.9259C40.342 58.0721 40.0171 57.9747 39.8701 57.731C39.5606 57.1615 38.9099 56.8845 38.2755 57.0641C37.6411 57.2428 37.2017 57.796 37.2017 58.4474V63.9801C37.2017 64.7769 37.8523 65.4114 38.6338 65.4114C39.4152 65.4114 40.0659 64.7769 40.0659 63.9801V61.8973H38.9595C38.6833 61.8973 38.4388 61.6861 38.4388 61.3766C38.4388 61.0671 38.6833 60.8559 38.9595 60.8559H40.5866C40.8952 60.8559 41.1072 61.0671 41.1072 61.3766V63.9801C41.1072 65.3472 40.0009 66.4527 38.6338 66.4527C37.2666 66.4527 36.1603 65.3464 36.1603 63.9801V58.4474C36.1603 57.324 36.9084 56.3647 37.9985 56.0552L37.9993 56.0544Z" fill="#00B5CD"/>
<path d="M58.9212 56.0386H62.1753C62.484 56.0386 62.696 56.2506 62.696 56.5593C62.696 56.8679 62.484 57.08 62.1753 57.08H59.4419V60.5298H61.8504C62.1591 60.5298 62.3711 60.741 62.3711 61.0505C62.3711 61.36 62.1599 61.5712 61.8504 61.5712H59.4419V65.346H62.1753C62.484 65.346 62.696 65.5572 62.696 65.8667C62.696 66.1762 62.484 66.3874 62.1753 66.3874H58.9212C58.6125 66.3874 58.4005 66.1762 58.4005 65.8667V56.5593C58.4005 56.2506 58.6117 56.0386 58.9212 56.0386Z" fill="#8AACBC"/>
<path d="M38.6288 49.7373C35.2066 49.6569 32.8996 46.2996 34.0742 43.065C34.8272 40.992 36.0506 39.1699 37.2723 37.3544C37.6078 36.8565 37.9733 36.3789 38.3153 35.885C38.5565 35.5373 38.7872 35.4739 39.0602 35.8525C40.7067 38.1334 42.346 40.4258 43.3362 43.0861C44.5457 46.337 42.0568 49.8185 38.628 49.7373H38.6288ZM38.6954 36.378C38.0756 37.2919 37.4835 38.1318 36.9262 38.9953C36.0075 40.4201 35.1205 41.8676 34.577 43.4874C33.9913 45.233 34.6453 47.1761 36.1562 48.2881C37.6646 49.3985 39.6962 49.4115 41.2087 48.3214C42.7554 47.2061 43.4426 45.2346 42.822 43.4792C41.9032 40.8823 40.303 38.6761 38.6962 36.378H38.6954Z" fill="white"/>
<path d="M17.6502 37.3666C17.4057 37.3292 17.1701 37.3162 16.9361 37.3048V35.6924H16.4114V37.3024C16.2173 37.3089 16.0215 37.3089 15.8355 37.3341C11.7975 37.8174 10.4791 42.3289 12.4116 45.3109C13.4676 46.9404 14.8185 48.2767 16.3164 49.4862C16.5609 49.6836 16.7428 49.6909 16.9898 49.4895C18.6452 48.1418 20.1586 46.6772 21.1975 44.7732C22.6654 42.0836 21.4095 37.8962 17.6502 37.3657V37.3666ZM20.7516 44.6091C19.815 46.3385 18.4511 47.6683 16.9581 48.8916C16.7355 49.0744 16.5714 49.0679 16.3505 48.8883C15.0004 47.7893 13.7819 46.5765 12.8299 45.0965C11.0883 42.3882 12.2767 38.291 15.9167 37.8523C16.0767 37.8312 16.2449 37.8312 16.4106 37.8255V38.9619L13.8672 41.5053L14.2385 41.8765L16.4106 39.7044V41.3144L14.5358 43.1892L14.907 43.5604L16.4106 42.0568V43.4044L14.9923 44.8227L15.3635 45.194L16.4114 44.1461V45.9705H16.9361V44.1794L17.9467 45.1899L18.3179 44.8187L16.9361 43.4369V42.0893L18.421 43.5742L18.7923 43.203L16.9361 41.3469V39.7369L19.0758 41.8765L19.447 41.5053L16.9361 38.9944V37.8288C17.1392 37.8401 17.3415 37.8507 17.5535 37.8832C20.9425 38.3649 22.0748 42.1681 20.7516 44.6099V44.6091Z" fill="white"/>
<path d="M53.9603 42.2795C53.9457 45.3264 56.29 47.8129 59.1949 47.8543C59.6847 47.8616 60.0876 47.7292 60.4775 47.4344C61.2329 46.8641 61.644 46.8536 62.3271 47.4758C62.8649 47.9648 63.2759 47.9997 63.8445 47.505C64.6609 46.7951 65.7567 47.0233 66.3586 47.9307C66.4593 48.0826 66.491 48.1988 66.3562 48.3344C66.2457 48.4457 66.1287 48.4376 66.0142 48.3482C65.8924 48.2532 65.7713 48.1565 65.6608 48.0493C65.1125 47.5172 64.6178 47.4799 64.0127 48.0412C63.3433 48.661 62.8397 48.6455 62.1728 48.0363C61.644 47.553 61.2102 47.4555 60.6554 47.977C60.2484 48.3588 59.7253 48.466 59.1526 48.4506C56.1926 48.3718 53.6208 45.9194 53.395 42.7335C53.2 39.9782 54.7426 37.1668 57.861 36.4463C60.9178 35.7404 63.5935 37.5843 63.9136 40.6264C63.9704 41.1658 63.8941 41.6978 63.7381 42.2185C63.6747 42.4305 63.6008 42.6239 63.3206 42.5435C63.0468 42.4647 63.1484 42.2762 63.2117 42.1105C63.9566 40.1439 62.6756 37.7752 60.5474 37.0644C58.4102 36.3496 55.7986 37.4137 54.6703 39.4737C54.1918 40.347 53.9287 41.2779 53.9587 42.2811L53.9603 42.2795Z" fill="#F1F3F3"/>
<path d="M77.7035 42.6145C77.7141 39.877 79.8968 37.7406 82.6741 37.7495C85.4148 37.7585 87.5503 39.9395 87.539 42.7168C87.5276 45.4584 85.3457 47.5964 82.5717 47.585C79.8399 47.5736 77.693 45.3812 77.7035 42.6145ZM87.0394 42.7095C87.0768 40.3262 85.1085 38.3084 82.6862 38.2459C80.3208 38.1849 78.2632 40.1775 78.2072 42.5836C78.1511 44.9929 80.1754 47.0708 82.5985 47.0919C84.9802 47.1122 87.0012 45.118 87.0394 42.7095Z" fill="white"/>
<path d="M82.9306 34.4844H82.3539V37.0959H82.9306V34.4844Z" fill="white"/>
<path d="M82.9306 48.2524H82.3539V50.864H82.9306V48.2524Z" fill="white"/>
<path d="M90.8799 42.9923V42.4155H88.2683V42.9923H90.8799Z" fill="white"/>
<path d="M77.0731 42.9913V42.4146H74.4615V42.9913H77.0731Z" fill="white"/>
<path d="M88.6855 37.087L88.2777 36.6792L86.431 38.5259L86.8389 38.9337L88.6855 37.087Z" fill="white"/>
<path d="M78.9022 46.8702L78.4944 46.4624L76.6477 48.3091L77.0555 48.7169L78.9022 46.8702Z" fill="white"/>
<path d="M78.4841 38.9327L78.892 38.5249L77.0453 36.6782L76.6375 37.0861L78.4841 38.9327Z" fill="white"/>
<path d="M88.3736 48.8229L88.7814 48.415L86.9347 46.5684L86.5269 46.9762L88.3736 48.8229Z" fill="white"/>
</g>
<defs>
<clipPath id="clip0_211_138">
<rect width="85.3363" height="33.4574" fill="white" transform="translate(7 33)"/>
</clipPath>
</defs>
</svg>
