<svg width="175" height="69" viewBox="0 0 175 69" fill="none" xmlns="http://www.w3.org/2000/svg">
<g clip-path="url(#clip0_159_432)">
<path d="M19.8198 39.6396C30.766 39.6396 39.6396 30.766 39.6396 19.8198C39.6396 8.87363 30.766 0 19.8198 0C8.87363 0 0 8.87363 0 19.8198C0 30.766 8.87363 39.6396 19.8198 39.6396Z" fill="#26A43C"/>
<path d="M65.0199 39.6446C75.9661 39.6446 84.8397 30.771 84.8397 19.8248C84.8397 8.87864 75.9661 0.00500488 65.0199 0.00500488C54.0737 0.00500488 45.2001 8.87864 45.2001 19.8248C45.2001 30.771 54.0737 39.6446 65.0199 39.6446Z" fill="#00B5CD"/>
<path d="M109.91 39.7279C120.856 39.7279 129.73 30.8543 129.73 19.9081C129.73 8.96192 120.856 0.0882874 109.91 0.0882874C98.964 0.0882874 90.0903 8.96192 90.0903 19.9081C90.0903 30.8543 98.964 39.7279 109.91 39.7279Z" fill="#8AACBC"/>
<path d="M155.179 39.6596C166.125 39.6596 174.998 30.786 174.998 19.8398C174.998 8.89362 166.125 0.019989 155.179 0.019989C144.232 0.019989 135.359 8.89362 135.359 19.8398C135.359 30.786 144.232 39.6596 155.179 39.6596Z" fill="#FFD200"/>
<path d="M25.3819 68.5681C24.8155 68.7347 24.2475 68.3998 24.0809 67.8335C23.981 67.4986 23.881 67.1321 23.7811 66.7307C23.5462 66.0294 23.313 65.0965 23.0131 63.9271H16.5398C16.1733 65.0949 16.0051 66.0294 15.7718 66.7307C15.6719 67.1321 15.5719 67.4986 15.472 67.8335C15.3054 68.3998 14.7707 68.7347 14.1377 68.5681C13.5713 68.3998 13.2365 67.8335 13.4031 67.2654L18.742 47.912C18.8753 47.4106 19.275 47.1108 19.7765 47.1108C20.2779 47.1108 20.6777 47.4106 20.8109 47.912L26.1498 67.2654C26.3164 67.8335 26.0166 68.3998 25.3819 68.5681ZM19.7748 52.1848C19.0735 54.5869 18.0407 58.4916 17.1378 61.7949H22.4101C21.5089 58.4916 20.4078 54.5869 19.7731 52.1848H19.7748Z" fill="#26A43C"/>
<path d="M160.607 68.5681C160.041 68.7347 159.473 68.3998 159.306 67.8335C159.206 67.4986 159.106 67.1321 159.007 66.7307C158.773 66.0294 158.54 65.0965 158.239 63.9271H151.765C151.397 65.0949 151.231 66.0294 150.997 66.7307C150.897 67.1321 150.797 67.4986 150.697 67.8335C150.531 68.3998 149.996 68.7347 149.363 68.5681C148.795 68.3998 148.462 67.8335 148.629 67.2654L153.967 47.912C154.102 47.4106 154.502 47.1108 155.002 47.1108C155.502 47.1108 155.903 47.4106 156.036 47.912L161.375 67.2654C161.542 67.8335 161.242 68.3998 160.607 68.5681ZM155.002 52.1848C154.301 54.5869 153.266 58.4916 152.365 61.7949H157.637C156.736 58.4916 155.635 54.5869 155 52.1848H155.002Z" fill="#FFD200"/>
<path d="M63.5706 47.279C65.8061 46.646 68.1083 47.6805 69.276 49.6478C69.5758 50.1492 69.4093 50.8155 68.8762 51.117C68.3748 51.4169 67.7085 51.217 67.4069 50.7173C66.7723 49.5495 65.438 48.9815 64.137 49.3496C62.836 49.7161 61.9348 50.8505 61.9348 52.1865V63.5323C61.9348 65.1665 63.2691 66.4675 64.8716 66.4675C66.4741 66.4675 67.8084 65.1665 67.8084 63.5323V59.2612H65.5396C64.9732 59.2612 64.4718 58.8281 64.4718 58.1934C64.4718 57.5587 64.9732 57.1256 65.5396 57.1256H68.8762C69.5092 57.1256 69.944 57.5587 69.944 58.1934V63.5323C69.944 66.3359 67.6751 68.6031 64.8716 68.6031C62.068 68.6031 59.7992 66.3342 59.7992 63.5323V52.1865C59.7992 49.8827 61.3334 47.9154 63.5689 47.2807L63.5706 47.279Z" fill="#00B5CD"/>
<path d="M106.475 47.2457H113.148C113.781 47.2457 114.216 47.6805 114.216 48.3135C114.216 48.9465 113.781 49.3813 113.148 49.3813H107.543V56.456H112.482C113.115 56.456 113.55 56.8891 113.55 57.5237C113.55 58.1584 113.117 58.5915 112.482 58.5915H107.543V66.3326H113.148C113.781 66.3326 114.216 66.7657 114.216 67.4003C114.216 68.035 113.781 68.4681 113.148 68.4681H106.475C105.842 68.4681 105.407 68.035 105.407 67.4003V48.3135C105.407 47.6805 105.841 47.2457 106.475 47.2457Z" fill="#8AACBC"/>
<path d="M64.8616 34.324C57.8436 34.1591 53.1126 27.2743 55.5214 20.641C57.0656 16.3899 59.5743 12.6535 62.0797 8.9304C62.7677 7.90926 63.5173 6.92977 64.2186 5.91695C64.7134 5.20399 65.1864 5.07405 65.7462 5.85032C69.1227 10.5279 72.4844 15.2288 74.515 20.6844C76.9954 27.3509 71.8913 34.4906 64.8599 34.324H64.8616ZM64.9982 6.9281C63.7272 8.80214 62.5128 10.5246 61.3701 12.2953C59.486 15.2172 57.667 18.1856 56.5525 21.5073C55.3515 25.0871 56.6925 29.0717 59.7909 31.3522C62.8843 33.6294 67.0505 33.656 70.1522 31.4205C73.3239 29.1333 74.7332 25.0904 73.4605 21.4906C71.5765 16.165 68.2948 11.6407 64.9999 6.9281H64.9982Z" fill="white"/>
<path d="M21.8404 8.95539C21.339 8.87876 20.8559 8.85211 20.3761 8.82879V5.52216H19.3V8.82379C18.9019 8.83712 18.5004 8.83712 18.119 8.88876C9.83822 9.87991 7.13461 19.1318 11.0976 25.247C13.2631 28.5886 16.0334 31.3289 19.1051 33.8093C19.6065 34.2141 19.9797 34.2291 20.4861 33.8159C23.881 31.0524 26.9844 28.0489 29.115 24.1442C32.1251 18.6287 29.5497 10.0415 21.8404 8.95372V8.95539ZM28.2004 23.8078C26.2798 27.3543 23.4829 30.0812 20.4211 32.5899C19.9647 32.9647 19.6282 32.9514 19.1751 32.5832C16.4065 30.3294 13.9078 27.8423 11.9555 24.8072C8.38397 19.2534 10.821 10.8511 18.2855 9.95154C18.6137 9.90823 18.9585 9.90823 19.2984 9.89657V12.227L14.0827 17.4427L14.844 18.204L19.2984 13.7496V17.0512L15.4537 20.8959L16.2149 21.6572L19.2984 18.5738V21.3374L16.3899 24.2459L17.1511 25.0071L19.3 22.8582V26.5996H20.3761V22.9265L22.4484 24.9988L23.2097 24.2375L20.3761 21.404V18.6404L23.4212 21.6855L24.1825 20.9242L20.3761 17.1179V13.8162L24.7639 18.204L25.5252 17.4427L20.3761 12.2937V9.90324C20.7926 9.92656 21.2074 9.94821 21.6421 10.0148C28.5919 11.0027 30.914 18.802 28.2004 23.8094V23.8078Z" fill="white"/>
<path d="M96.3021 19.0302C96.2721 25.2787 101.08 30.3777 107.037 30.4627C108.041 30.4777 108.867 30.2061 109.667 29.6014C111.216 28.4321 112.059 28.4104 113.46 29.6864C114.563 30.6892 115.406 30.7609 116.572 29.7464C118.246 28.2905 120.493 28.7585 121.727 30.6193C121.934 30.9308 121.999 31.169 121.722 31.4472C121.496 31.6754 121.256 31.6587 121.021 31.4755C120.771 31.2806 120.523 31.0824 120.296 30.8625C119.172 29.7714 118.158 29.6947 116.917 30.8458C115.544 32.1168 114.511 32.0852 113.143 30.8358C112.059 29.8447 111.169 29.6448 110.032 30.7142C109.197 31.4971 108.124 31.717 106.95 31.6854C100.88 31.5238 95.6058 26.4947 95.1427 19.9614C94.7429 14.311 97.9063 8.54561 104.301 7.06804C110.57 5.62045 116.057 9.40184 116.713 15.6403C116.83 16.7464 116.673 17.8375 116.353 18.9053C116.224 19.3401 116.072 19.7365 115.497 19.5716C114.936 19.41 115.144 19.0236 115.274 18.6837C116.802 14.6508 114.175 9.79331 109.81 8.33572C105.427 6.86981 100.072 9.05202 97.758 13.2765C96.7769 15.0673 96.2371 16.9763 96.2988 19.0336L96.3021 19.0302Z" fill="#F1F3F3"/>
<path d="M144.992 19.7165C145.014 14.1028 149.49 9.72168 155.185 9.74C160.806 9.75833 165.185 14.231 165.162 19.9264C165.138 25.5485 160.664 29.9329 154.975 29.9096C149.373 29.8863 144.97 25.3903 144.992 19.7165ZM164.137 19.9114C164.214 15.024 160.178 10.8861 155.21 10.7578C150.359 10.6329 146.14 14.7191 146.025 19.6532C145.91 24.594 150.061 28.8552 155.03 28.8985C159.914 28.9401 164.059 24.8506 164.137 19.9114Z" fill="white"/>
<path d="M155.712 3.0451H154.529V8.40068H155.712V3.0451Z" fill="white"/>
<path d="M155.712 31.2789H154.529V36.6345H155.712V31.2789Z" fill="white"/>
<path d="M172.013 20.4911V19.3084H166.658V20.4911H172.013Z" fill="white"/>
<path d="M143.699 20.4895V19.3067H138.344V20.4895H143.699Z" fill="white"/>
<path d="M167.513 8.38211L166.677 7.54579L162.89 11.3328L163.726 12.1691L167.513 8.38211Z" fill="white"/>
<path d="M147.451 28.4451L146.614 27.6088L142.827 31.3958L143.664 32.2321L147.451 28.4451Z" fill="white"/>
<path d="M146.593 12.1683L147.429 11.3319L143.642 7.54497L142.806 8.38129L146.593 12.1683Z" fill="white"/>
<path d="M166.873 32.4495L167.709 31.6132L163.923 27.8262L163.086 28.6625L166.873 32.4495Z" fill="white"/>
</g>
<defs>
<clipPath id="clip0_159_432">
<rect width="175" height="68.6114" fill="white"/>
</clipPath>
</defs>
</svg>
