<svg width="1920" height="570" viewBox="0 0 1920 570" fill="none" xmlns="http://www.w3.org/2000/svg">
<g clip-path="url(#clip0_198_65)">
<g opacity="0.1" clip-path="url(#clip1_198_65)">
<path d="M-209.982 937.248C-239.275 939.653 -269.773 938.326 -298.167 931.823L-297.871 930.515C-223.364 947.602 -134.328 928.819 -91.2563 900.796C-34.8137 864.069 -16.8161 813.544 -11.6677 777.638C-7.12771 745.923 -7.28009 713.055 -7.41707 681.266C-7.53875 653.234 -7.66688 624.23 -4.56538 596.19C4.86679 510.5 46.8139 448.258 120.102 411.229C184.543 378.666 269.253 360.953 358.597 361.297C489.902 361.826 623.229 387.207 752.163 411.739C813.57 423.431 871.59 434.467 929.066 442.908C1101.12 468.17 1233.79 474.966 1359.19 464.964C1359.77 464.916 1360.35 464.868 1360.92 464.822C1491.56 454.097 1584.28 412.797 1639.13 379.957C1658.67 368.272 1677.86 353.244 1697.81 334.029C1744.06 289.469 1773.21 240.284 1801.4 192.698C1812.69 173.644 1824.36 153.955 1836.87 135.021C1839.33 131.3 1841.79 127.506 1844.26 123.674C1857.81 102.675 1871.83 80.9591 1892.68 63.6314C1947.03 18.5173 2017.24 -11.8071 2095.73 -24.0612C2184.55 -37.9147 2279.77 -28.7231 2378.76 3.28876L2378.35 4.56858C2279.55 -27.3672 2184.55 -36.5585 2095.93 -22.7397C2017.67 -10.5232 1947.67 19.6923 1893.52 64.6625C1872.82 81.8493 1858.86 103.468 1845.36 124.39C1842.89 128.222 1840.43 132.016 1837.97 135.737C1825.48 154.633 1813.81 174.322 1802.53 193.357C1774.3 241.019 1745.1 290.301 1698.71 334.982C1678.69 354.257 1659.42 369.347 1639.79 381.094C1584.81 413.999 1491.88 455.389 1361.01 466.134C1360.43 466.182 1359.86 466.228 1359.28 466.276C1233.77 476.287 1101.03 469.479 928.861 444.208C871.348 435.77 813.328 424.716 751.902 413.025C623.023 388.489 489.771 363.138 358.594 362.599C269.432 362.239 184.957 379.915 120.692 412.391C47.8256 449.201 6.14115 511.073 -3.25561 596.302C-6.3449 624.268 -6.22127 653.217 -6.08438 681.212C-5.94292 713.055 -5.78755 745.96 -10.3565 777.768C-15.5552 813.954 -33.6866 864.856 -90.5465 901.856C-117.411 919.347 -162.08 933.26 -209.986 937.193L-209.982 937.248ZM-229.209 901.619C-252.99 903.572 -277.918 902.924 -302.408 898.685L-302.187 897.365C-226.209 910.501 -146.036 889.054 -109.187 862.22C-54.9865 822.726 -41.5472 775.582 -36.1532 743.559C-31.1195 713.619 -31.4158 681.898 -31.7011 651.203C-31.9591 624.41 -32.201 596.699 -28.939 570.166C-24.3868 533.246 -12.6175 499.673 6.06012 470.372C29.0544 434.302 62.7099 404.486 106.108 381.788C164.68 351.136 251.442 332.76 332.533 333.873C469.112 335.729 601.208 359.506 728.971 382.485C777.701 391.259 828.103 400.317 877.768 407.989C1019.38 429.83 1170.52 450.889 1324.34 447.865C1433.72 445.722 1539.67 421.041 1622.7 378.392C1645.48 366.698 1667.52 351.362 1686.43 334.047C1735.33 289.307 1766.12 238.886 1795.91 190.125C1807.86 170.559 1820.21 150.336 1833.49 130.936C1848.87 108.468 1867.97 82.3209 1893.11 58.7214C1999.9 -41.5788 2205.02 -62.8354 2403.54 5.85527L2403.11 7.11837C2205.06 -61.4094 2000.47 -40.2689 1894.03 59.7087C1869 83.2264 1849.94 109.296 1834.6 131.706C1821.35 151.067 1809 171.29 1797.07 190.836C1767.23 239.675 1736.37 290.192 1687.34 335.054C1668.33 352.451 1646.2 367.848 1623.31 379.606C1540.11 422.343 1433.94 447.078 1324.38 449.237C1170.45 452.27 1019.25 431.197 877.568 409.343C827.885 401.673 777.483 392.615 728.735 383.842C601.026 360.859 468.968 337.097 332.499 335.251C251.612 334.157 165.082 352.46 106.704 383.022C63.5181 405.629 30.0311 435.266 7.16745 471.143C-11.3962 500.269 -23.1077 533.654 -27.64 570.371C-30.8897 596.83 -30.6342 624.485 -30.3973 651.243C-30.109 681.974 -29.825 713.769 -34.8679 743.82C-46.1903 811.172 -82.2678 844.284 -108.417 863.348C-133.599 881.691 -178.86 897.541 -229.223 901.675L-229.209 901.619ZM-252.211 866.209C-270.405 867.703 -289.298 867.605 -308.232 865.457L-308.085 864.125C-235.142 872.414 -162.843 850.111 -129.101 823.807C-90.181 793.413 -67.6692 755.036 -62.2126 709.72C-59.0145 683.303 -58.8142 656.069 -58.6134 629.732C-58.4029 601.508 -58.1791 572.329 -54.277 544.222C-48.9546 505.974 -35.9679 471.165 -15.6774 440.76C9.43968 403.104 45.3132 373.308 90.9097 352.171C152.054 323.856 218.211 309.736 305.405 306.427C431.967 301.626 567.34 326.711 698.249 350.971C742.331 359.137 783.978 366.862 825.165 373.451C851.8 377.716 879.399 382.341 906.109 386.838C1032.37 408.034 1162.9 429.96 1289.14 430.759C1418.01 431.579 1521.72 413.882 1606.18 376.614C1629.69 366.235 1652.83 351.835 1675 333.812C1728.66 290.148 1758.9 240.139 1788.12 191.773C1801.16 170.174 1814.66 147.859 1829.99 126.605C1851.61 96.6037 1871.76 73.3771 1893.41 53.5095C2004.78 -48.7237 2219.66 -66.952 2428.12 8.16214L2427.68 9.42672C2219.65 -65.5215 2005.32 -47.4123 1894.32 54.5164C1872.74 74.3234 1852.64 97.4909 1831.06 127.415C1815.77 148.63 1802.29 170.925 1789.26 192.504C1759.97 240.967 1729.67 291.091 1675.84 334.898C1653.59 353.001 1630.34 367.464 1606.72 377.889C1522.09 415.226 1418.22 432.991 1289.14 432.151C1162.8 431.344 1032.19 409.405 905.892 388.213C879.202 383.732 851.583 379.09 824.968 374.842C783.762 368.254 742.116 360.529 698.033 352.363C567.199 328.116 431.901 303.043 305.485 307.85C218.473 311.145 152.459 325.215 91.4919 353.461C46.1229 374.47 10.4391 404.122 -14.5489 441.566C-34.7073 471.795 -47.6361 506.416 -52.9386 544.461C-56.8466 572.494 -57.0552 601.635 -57.2703 629.805C-57.468 656.178 -57.6669 683.43 -60.8757 709.94C-66.3933 755.628 -89.0632 794.311 -128.276 824.931C-153.461 844.576 -199.968 861.994 -252.205 866.282L-252.211 866.209ZM-277.828 831.509C-290.091 832.516 -302.763 832.786 -315.694 832.125L-315.621 830.781C-243.835 834.363 -179.997 809.841 -151.054 785.544C-115.787 755.944 -95.1846 719.08 -89.7837 675.987C-86.8359 652.321 -86.5206 627.826 -86.2305 604.141C-85.8756 575.666 -85.5271 546.22 -80.5125 518.279C-64.1756 427 -12.071 361.084 74.3953 322.368C135.049 295.211 201.4 281.003 277.285 278.952C406.263 275.456 544.984 299.826 679.115 323.4C709.427 328.719 740.762 334.229 771.236 339.279C816.712 346.799 863.189 355.355 908.124 363.634C1021.78 384.545 1139.28 406.185 1253.6 413.588C1385.55 422.147 1498.57 409.001 1589.54 374.534C1614.66 365.012 1640.21 350.744 1663.42 333.279C1722.26 288.968 1754.12 236.573 1784.91 185.915C1797.83 164.637 1811.21 142.626 1826.25 121.944C1847.85 92.2391 1869.84 68.0181 1893.48 47.9316C2016.68 -56.7758 2236.11 -71.62 2452.54 10.1168L2452.07 11.3647C2236.1 -70.2077 2017.19 -55.4432 1894.36 48.9597C1870.79 68.9842 1848.87 93.1263 1827.34 122.735C1812.33 143.377 1798.97 165.35 1786.06 186.608C1755.21 237.381 1723.29 289.892 1664.24 334.348C1640.93 351.895 1615.27 366.227 1590.03 375.796C1498.88 410.332 1385.68 423.493 1253.53 414.932C1139.14 407.517 1021.58 385.882 907.902 364.954C862.968 356.674 816.51 348.135 771.034 340.615C740.561 335.565 709.209 330.075 678.895 324.737C544.82 301.177 406.173 276.82 277.323 280.305C201.639 282.358 135.431 296.518 74.9548 323.605C-11.0701 362.12 -62.9272 427.704 -79.1741 518.517C-84.1613 546.346 -84.5142 575.737 -84.8736 604.157C-85.1607 627.88 -85.4731 652.41 -88.4331 676.151C-93.8601 719.595 -114.642 756.73 -150.165 786.552C-174.069 806.642 -221.626 826.877 -277.793 831.488L-277.828 831.509ZM-304.403 797.639C-311.098 798.188 -317.903 798.527 -324.854 798.64L-324.872 797.303C-266.357 796.311 -217.361 779.99 -175.033 747.373C-134.739 716.316 -123.767 672.581 -119.029 642.39C-115.384 619.181 -114.825 595.198 -114.275 572.004C-113.663 545.762 -113.014 518.638 -107.92 492.34C-95.4656 428.066 -56.8415 341.189 56.3954 292.321C118.24 265.616 180.867 252.227 247.875 251.381C390.344 249.563 532.14 273.901 669.273 297.448C684.805 300.114 700.301 302.782 715.774 305.397C778.502 316.01 842.11 329.299 903.63 342.137C1006 363.498 1111.87 385.598 1217.47 396.283C1361.43 410.857 1477.59 402.952 1572.55 372.117C1599.58 363.337 1626.88 349.603 1651.47 332.371C1714.68 288.124 1747.44 234.445 1779.13 182.521C1792.5 160.621 1806.3 137.988 1822.05 116.883C1844.44 86.8555 1867.65 62.3509 1893.05 41.9556C2022.2 -61.8476 2251.2 -73.7382 2476.42 11.6567L2475.95 12.9046C2251.16 -72.3426 2022.69 -60.5318 1893.9 42.9852C1868.61 63.317 1845.46 87.7427 1823.14 117.673C1807.45 138.72 1793.64 161.334 1780.29 183.196C1748.53 235.235 1715.69 289.031 1652.26 333.443C1627.56 350.739 1600.13 364.556 1572.96 373.366C1477.81 404.254 1361.49 412.172 1217.34 397.577C1111.67 386.879 1005.76 364.783 903.349 343.407C841.848 330.567 778.26 317.294 715.549 306.68C700.076 304.065 684.562 301.398 669.048 298.731C531.971 275.198 390.25 250.873 247.89 252.681C181.065 253.53 118.601 266.888 56.9337 293.523C-55.7723 342.164 -94.1927 428.621 -106.6 492.58C-111.668 518.747 -112.302 545.834 -112.92 572.003C-113.467 595.233 -114.023 619.252 -117.696 642.556C-122.471 672.97 -133.525 717.041 -174.199 748.386C-211.719 777.31 -254.48 793.503 -304.369 797.599L-304.403 797.639ZM-335.76 764.858L-335.87 763.529C-269.265 757.089 -222.661 731.269 -201.26 709.259C-174.084 681.295 -157.292 648.428 -149.979 608.769C-145.756 585.915 -144.553 561.751 -143.374 538.396C-142.183 514.526 -140.951 489.828 -136.508 466.296C-128.949 426.288 -112.412 389.428 -87.3435 356.761C-57.1972 317.446 -15.4525 285.537 36.7358 261.915C86.6821 239.322 150.719 225.706 217.054 223.578C357.014 219.089 496.054 243.323 630.503 266.76C639.962 268.403 649.347 270.052 658.694 271.667C738.761 285.53 818.861 303.807 896.327 321.458C989.231 342.643 1085.29 364.558 1180.69 378.629C1331.16 400.843 1453.66 397.732 1555.17 369.108C1584.46 360.857 1613.49 347.623 1639.13 330.855C1706.68 286.673 1740.36 231.636 1772.93 178.411C1786.69 155.929 1800.92 132.675 1817.31 111.187C1837.57 84.6335 1862.69 59.1104 1891.99 35.3342C1957.27 -17.6421 2052.02 -46.8475 2166.01 -49.1307C2271.94 -51.2664 2390.46 -29.3615 2499.72 12.5117L2499.23 13.7611C2390.13 -28.0513 2271.8 -49.9165 2166.03 -47.7942C2052.37 -45.5197 1957.88 -16.4095 1892.83 36.3653C1863.61 60.0612 1838.56 85.5055 1818.37 111.998C1802.03 133.427 1788.45 155.62 1774.07 179.106C1741.43 232.464 1707.66 287.637 1639.86 331.968C1614.12 348.8 1584.95 362.1 1555.53 370.38C1453.85 399.055 1331.16 402.181 1180.5 379.927C1085.07 365.841 988.97 343.929 896.028 322.728C818.58 305.077 738.499 286.798 658.469 272.95C649.123 271.335 639.719 269.688 630.279 268.043C495.885 244.619 356.937 220.378 217.106 224.875C150.934 226.99 87.0779 240.572 37.2908 263.098C-14.6866 286.61 -56.2583 318.395 -86.2726 357.535C-111.208 390.044 -127.668 426.714 -135.189 466.518C-139.621 489.957 -140.84 514.599 -142.034 538.432C-143.208 561.843 -144.408 586.043 -148.661 608.991C-156.044 648.912 -172.926 682.006 -200.306 710.17C-221.876 732.359 -268.776 758.369 -335.76 764.858ZM-348.354 731.049L-348.609 729.732C-281.23 716.887 -245.037 687.633 -229.469 671.325C-198.447 638.885 -188.076 603.008 -182.522 575.389C-178.174 553.826 -176.339 531.113 -174.553 509.137C-172.723 486.352 -170.811 462.789 -166.1 440.298C-151.68 371.409 -108.418 279.221 15.7241 231.327C72.7711 209.324 121.839 199.008 185.096 195.758C319.253 188.849 475.061 216.307 600.256 238.36C695.51 255.137 789.239 278.563 879.865 301.218C965.833 322.698 1054.72 344.909 1143.47 360.992C1304.6 390.211 1429.86 391.768 1537.62 365.894C1568.42 358.49 1600.03 345.429 1626.61 329.116C1697.46 285.598 1731.09 230.711 1763.6 177.638C1778.43 153.437 1793.76 128.388 1812.3 105.256C1835.23 76.6329 1860.84 51.5095 1890.66 28.4605C1959.59 -24.8524 2059.49 -53.1426 2179.56 -53.3412C2288.94 -53.5232 2410.84 -29.9166 2522.77 13.1297L2522.29 14.3791C2410.49 -28.6048 2288.78 -52.1718 2179.56 -52.0033C2059.79 -51.8103 1960.18 -23.6183 1891.48 29.5295C1861.77 52.5149 1836.2 77.5611 1813.36 106.104C1794.88 129.175 1779.57 154.186 1764.76 178.349C1732.16 231.557 1698.45 286.579 1627.32 330.267C1600.63 346.663 1568.9 359.77 1537.95 367.205C1429.99 393.114 1304.57 391.57 1143.25 362.311C1054.46 346.213 965.555 324.003 879.568 302.507C788.944 279.87 695.25 256.441 600.035 239.679C474.895 217.64 319.18 190.193 185.169 197.09C122.057 200.329 73.097 210.616 16.2108 232.57C-107.381 280.254 -150.441 372.004 -164.795 440.576C-169.494 462.993 -171.391 486.517 -173.225 509.248C-175.008 531.26 -176.84 554.01 -181.2 575.647C-186.794 603.452 -197.238 639.555 -228.496 672.254C-244.183 688.663 -280.598 718.118 -348.354 731.049ZM-362.601 697.413L-362.998 696.144C-307.036 678.995 -275.9 652.85 -259.632 633.919C-237.81 608.557 -223.705 578.66 -216.507 542.512C-212.825 523.991 -210.517 504.814 -208.266 486.264C-205.397 462.531 -202.43 437.984 -196.581 414.63C-169.776 307.847 -107.597 237.915 -6.50361 200.876C45.7401 181.722 90.2521 172.588 152.246 168.231C271.612 159.879 409.617 182.219 540.745 205.801C650.14 225.485 756.389 254.152 859.135 281.879C939.665 303.603 1022.95 326.073 1106.05 343.682C1275.71 379.607 1407.3 385.684 1520.15 362.801C1552.81 356.179 1586.2 343.632 1614.18 327.479C1692.83 282.074 1729.19 222.545 1764.34 164.986C1777.71 143.085 1791.55 120.45 1807.35 99.431C1828.52 71.2633 1856.12 45.0972 1889.4 21.6537C1965.82 -32.2003 2071.95 -59.6087 2196.32 -57.6311C2306.84 -55.8729 2431.01 -30.4733 2545.95 13.848L2545.47 15.0974C2430.68 -29.1813 2306.68 -54.5397 2196.3 -56.2917C2072.22 -58.275 1966.38 -30.9269 1890.19 22.7621C1857.03 46.1223 1829.53 72.2067 1808.45 100.258C1792.69 121.217 1778.87 143.833 1765.52 165.696C1730.27 223.392 1693.82 283.055 1614.88 328.649C1586.78 344.868 1553.25 357.463 1520.45 364.114C1407.41 387.031 1275.65 380.949 1105.81 344.985C1022.67 327.379 939.388 304.909 858.838 283.168C756.111 255.458 649.88 226.79 540.56 207.117C409.524 183.546 271.594 161.219 152.392 169.557C90.5417 173.884 46.1388 183.009 -5.98051 202.116C-106.628 239.008 -168.539 308.625 -195.237 414.941C-201.057 438.201 -204.027 462.712 -206.881 486.407C-209.13 504.975 -211.454 524.19 -215.131 542.766C-222.384 579.138 -236.581 609.244 -258.553 634.784C-274.94 653.834 -306.298 680.181 -362.546 697.409L-362.601 697.413ZM-378.442 663.981L-378.982 662.761C-334.486 643.162 -308.913 617.309 -291.624 596.975C-268.806 570.138 -259.041 539.369 -251.883 510.097C-247.304 491.356 -244.024 472.172 -240.86 453.602C-237.246 432.466 -233.508 410.623 -227.857 389.32C-198.354 278.577 -133.597 207.021 -29.8928 170.556C23.2675 151.859 70.4512 142.469 118.579 141.01C225.869 137.737 337.397 147.917 480.197 174.005C603.73 196.561 722.114 230.683 836.595 263.678C912.183 285.46 990.362 308.001 1068.44 326.682C1312.27 385.036 1433.09 373.541 1502.74 359.832C1541.08 352.285 1574.41 340.879 1601.84 325.963C1684.93 280.724 1722.25 219.688 1758.33 160.677C1772.67 137.231 1786.2 115.097 1802.51 93.7255C1824.38 65.0415 1853.24 38.5341 1888.21 14.9881C1968.61 -39.1567 2079.9 -65.6681 2210.02 -61.6883C2323.98 -58.1963 2451.56 -31.06 2569.25 14.7576L2568.77 16.007C2451.22 -29.7497 2323.8 -56.8616 2209.98 -60.3473C2080.15 -64.3146 1969.14 -37.8802 1888.98 16.098C1854.11 39.5804 1825.38 65.9681 1803.58 94.5354C1787.32 115.848 1773.81 137.962 1759.48 161.371C1723.29 220.537 1685.89 281.727 1602.48 327.137C1574.94 342.137 1541.48 353.572 1503.01 361.147C1357.33 389.842 1185.06 355.964 1068.15 327.989C990.048 309.309 911.851 286.77 836.243 264.972C721.8 231.992 603.453 197.867 479.975 175.324C337.269 149.265 225.835 139.096 118.634 142.343C70.6528 143.808 23.595 153.17 -29.4228 171.819C-132.681 208.137 -197.151 279.394 -226.527 389.669C-232.185 410.9 -235.906 432.723 -239.523 453.822C-242.704 472.412 -245.98 491.633 -250.575 510.412C-257.776 539.833 -267.597 570.808 -290.6 597.844C-307.99 618.296 -333.699 644.271 -378.442 663.981Z" fill="#187928"/>
</g>
</g>
<defs>
<clipPath id="clip0_198_65">
<rect width="1920" height="570" fill="white"/>
</clipPath>
<clipPath id="clip1_198_65">
<rect width="2991.37" height="802.633" fill="white" transform="translate(-421.141 149.25) rotate(-4.69339)"/>
</clipPath>
</defs>
</svg>
