<svg width="41" height="41" viewBox="0 0 41 41" fill="none" xmlns="http://www.w3.org/2000/svg">
<circle cx="20.5" cy="20.5" r="20.5" fill="#187928"/>
<path d="M27.1186 26.6793L27.5252 27.0483L27.5254 27.048L27.1186 26.6793ZM25.9178 27.5432L25.7096 27.0351L25.7066 27.0363L25.9178 27.5432ZM19.5848 25.8373L19.2609 26.2807L19.2616 26.2812L19.5848 25.8373ZM17.1834 23.7873L16.7932 24.1737L16.797 24.1775L17.1834 23.7873ZM15.1407 21.3932L14.6949 21.7138L14.6968 21.7164L15.1407 21.3932ZM13.7057 18.8966L13.1996 19.1097L13.2003 19.1113L13.7057 18.8966ZM13.4421 15.0895L13.952 15.2934L13.9531 15.2905L13.4421 15.0895ZM14.2841 13.8668L14.661 14.2663L14.6693 14.2581L14.2841 13.8668ZM16.4 13.3103L16.1623 13.8054L16.1699 13.8089L16.4 13.3103ZM16.8905 13.7203L16.439 14.0329L16.4427 14.0381L16.8905 13.7203ZM18.5891 16.1145L18.1412 16.4322L18.1435 16.4353L18.5891 16.1145ZM18.882 16.627L18.3737 16.8349L18.3772 16.8433L18.882 16.627ZM18.8307 17.5934L18.3617 17.3079L18.357 17.3155L18.3527 17.3232L18.8307 17.5934ZM18.4207 18.1132L18.0324 17.7249L18.025 17.7325L18.4207 18.1132ZM17.8643 18.6916L18.2526 19.0799L18.26 19.0723L17.8643 18.6916ZM17.7691 19.1528L17.2364 19.286L17.244 19.3164L17.2549 19.3456L17.7691 19.1528ZM17.8277 19.2993L17.3067 19.4729L17.3222 19.5193L17.3456 19.5622L17.8277 19.2993ZM18.5086 20.2364L18.0894 20.5911L18.0933 20.5957L18.5086 20.2364ZM19.5702 21.3932L19.1781 21.7778L19.1855 21.7851L19.5702 21.3932ZM20.7343 22.4695L20.3789 22.888L20.3796 22.8886L20.7343 22.4695ZM21.6787 23.143L21.4218 23.6283L21.4477 23.642L21.4748 23.6529L21.6787 23.143ZM21.8105 23.2016L21.5942 23.7063L21.6059 23.7113L21.6177 23.7157L21.8105 23.2016ZM22.2937 23.1064L21.908 22.7156L21.9055 22.7181L22.2937 23.1064ZM22.8502 22.5573L23.2359 22.9482L23.2384 22.9456L22.8502 22.5573ZM23.3773 22.1473L23.6313 22.6341L23.6474 22.6258L23.6628 22.6164L23.3773 22.1473ZM24.8562 22.3743L25.1742 21.9264L25.165 21.9202L24.8562 22.3743ZM27.2796 24.0948L26.9617 24.5426L26.9671 24.5463L27.2796 24.0948ZM27.6823 24.5634L28.1921 24.3594L28.1887 24.3508L28.1849 24.3422L27.6823 24.5634ZM24.7098 18.3036C24.7098 18.6068 24.9557 18.8527 25.2589 18.8527C25.5622 18.8527 25.808 18.6068 25.808 18.3036H24.7098ZM24.4023 16.6416L23.9997 17.015L24.0009 17.0163L24.4023 16.6416ZM22.6964 15.192C22.3932 15.192 22.1473 15.4378 22.1473 15.7411C22.1473 16.0443 22.3932 16.2902 22.6964 16.2902V15.192ZM27.2723 18.3036C27.2723 18.6068 27.5182 18.8527 27.8214 18.8527C28.1247 18.8527 28.3705 18.6068 28.3705 18.3036H27.2723ZM22.6964 12.6295C22.3932 12.6295 22.1473 12.8753 22.1473 13.1786C22.1473 13.4818 22.3932 13.7277 22.6964 13.7277V12.6295ZM27.2503 25.1345C27.2503 25.3157 27.2103 25.5066 27.1199 25.698L28.1129 26.167C28.2715 25.8312 28.3486 25.4804 28.3486 25.1345H27.2503ZM27.1199 25.698C27.0172 25.9155 26.8856 26.1186 26.7117 26.3105L27.5254 27.048C27.7761 26.7714 27.9667 26.4767 28.1129 26.167L27.1199 25.698ZM26.7119 26.3103C26.4015 26.6523 26.072 26.8866 25.7096 27.0351L26.1261 28.0513C26.6569 27.8337 27.1181 27.4969 27.5252 27.0483L26.7119 26.3103ZM25.7066 27.0363C25.3368 27.1904 24.933 27.2723 24.4902 27.2723V28.3705C25.0724 28.3705 25.6203 28.262 26.129 28.0501L25.7066 27.0363ZM24.4902 27.2723C23.8302 27.2723 23.1055 27.117 22.3186 26.7818L21.8881 27.7921C22.7852 28.1744 23.6565 28.3705 24.4902 28.3705V27.2723ZM22.3186 26.7818C21.5187 26.441 20.7127 25.9793 19.908 25.3934L19.2616 26.2812C20.1262 26.9107 21.0041 27.4154 21.8881 27.7921L22.3186 26.7818ZM19.9087 25.3939C19.0894 24.7954 18.3122 24.1324 17.5698 23.3972L16.797 24.1775C17.5775 24.9504 18.3963 25.6492 19.2609 26.2807L19.9087 25.3939ZM17.5735 23.4009C16.8382 22.6584 16.1754 21.8814 15.5846 21.07L14.6968 21.7164C15.3214 22.5743 16.0204 23.3933 16.7932 24.1737L17.5735 23.4009ZM15.5865 21.0726C15.0054 20.2648 14.5439 19.4654 14.2111 18.6819L13.2003 19.1113C13.5703 19.9824 14.0753 20.8523 14.6949 21.7138L15.5865 21.0726ZM14.2118 18.6835C13.8835 17.9038 13.7277 17.1782 13.7277 16.5025H12.6295C12.6295 17.3496 12.8251 18.2201 13.1996 19.1097L14.2118 18.6835ZM13.7277 16.5025C13.7277 16.0697 13.8039 15.6635 13.952 15.2934L12.9323 14.8855C12.7289 15.394 12.6295 15.9396 12.6295 16.5025H13.7277ZM13.9531 15.2905C14.0974 14.9237 14.328 14.5803 14.6609 14.2662L13.9073 13.4674C13.4642 13.8854 13.1382 14.362 12.9311 14.8884L13.9531 15.2905ZM14.6693 14.2581C15.055 13.8784 15.4349 13.7277 15.807 13.7277V12.6295C15.0954 12.6295 14.4503 12.9326 13.8989 13.4755L14.6693 14.2581ZM15.807 13.7277C15.9351 13.7277 16.0582 13.7554 16.1624 13.8054L16.6376 12.8153C16.3757 12.6896 16.0888 12.6295 15.807 12.6295V13.7277ZM16.1699 13.8089C16.2787 13.8591 16.3676 13.9297 16.4391 14.0329L17.342 13.4078C17.1498 13.1302 16.902 12.9373 16.6301 12.8118L16.1699 13.8089ZM16.4427 14.0381L18.1413 16.4322L19.0369 15.7967L17.3384 13.4026L16.4427 14.0381ZM18.1435 16.4353C18.2554 16.5907 18.3273 16.7214 18.3737 16.8349L19.3902 16.419C19.3048 16.2103 19.1864 16.0043 19.0347 15.7936L18.1435 16.4353ZM18.3772 16.8433C18.4217 16.9471 18.4353 17.0265 18.4353 17.0736H19.5336C19.5336 16.8424 19.474 16.6143 19.3867 16.4106L18.3772 16.8433ZM18.4353 17.0736C18.4353 17.1387 18.4171 17.2167 18.3617 17.3079L19.2997 17.8789C19.4493 17.6333 19.5336 17.3598 19.5336 17.0736H18.4353ZM18.3527 17.3232C18.2882 17.4373 18.1833 17.5741 18.0324 17.7249L18.809 18.5015C19.0096 18.3009 19.1829 18.0862 19.3087 17.8636L18.3527 17.3232ZM18.025 17.7325L17.4686 18.3109L18.26 19.0723L18.8164 18.4939L18.025 17.7325ZM17.476 18.3033C17.284 18.4953 17.198 18.7341 17.198 18.9845H18.2962C18.2962 18.984 18.2961 19.0011 18.286 19.0266C18.2755 19.0531 18.261 19.0714 18.2525 19.0799L17.476 18.3033ZM17.198 18.9845C17.198 19.095 17.2127 19.1914 17.2364 19.286L18.3018 19.0197C18.2962 18.9972 18.2962 18.991 18.2962 18.9845H17.198ZM17.2549 19.3456C17.2707 19.3878 17.2866 19.4247 17.2954 19.4455C17.3061 19.4707 17.3071 19.4741 17.3067 19.4729L18.3486 19.1256C18.3335 19.0805 18.3163 19.0399 18.3068 19.0176C18.2955 18.9908 18.2894 18.9765 18.2832 18.96L17.2549 19.3456ZM17.3456 19.5622C17.5033 19.8514 17.7575 20.1989 18.0894 20.5911L18.9277 19.8817C18.6153 19.5125 18.4156 19.2304 18.3097 19.0363L17.3456 19.5622ZM18.0933 20.5957C18.4284 20.9829 18.7877 21.3797 19.1782 21.7778L19.9621 21.0086C19.5912 20.6306 19.2477 20.2514 18.9238 19.8771L18.0933 20.5957ZM19.1855 21.7851C19.5853 22.1775 19.9766 22.5464 20.3789 22.888L21.0897 22.0509C20.7159 21.7335 20.3457 21.385 19.9548 21.0013L19.1855 21.7851ZM20.3796 22.8886C20.7765 23.2245 21.125 23.4712 21.4218 23.6283L21.9357 22.6577C21.7346 22.5513 21.4534 22.3587 21.089 22.0503L20.3796 22.8886ZM21.4748 23.6529C21.4786 23.6544 21.4866 23.6579 21.5104 23.6687C21.5304 23.6779 21.561 23.6921 21.5942 23.7063L22.0268 22.6969C22.0088 22.6892 21.9919 22.6814 21.9679 22.6704C21.9477 22.6611 21.9155 22.6463 21.8827 22.6332L21.4748 23.6529ZM21.6177 23.7157C21.7565 23.7678 21.8851 23.78 21.9936 23.78V22.6818C21.9807 22.6818 21.978 22.681 21.9816 22.6816C21.9834 22.6818 21.9866 22.6824 21.9907 22.6835C21.9948 22.6845 21.9991 22.6858 22.0033 22.6874L21.6177 23.7157ZM21.9936 23.78C22.2714 23.78 22.5041 23.6726 22.682 23.4947L21.9055 22.7181C21.9073 22.7163 21.9205 22.7041 21.9449 22.6937C21.9699 22.683 21.9891 22.6818 21.9936 22.6818V23.78ZM22.6794 23.4973L23.2359 22.9481L22.4645 22.1665L21.908 22.7156L22.6794 23.4973ZM23.2384 22.9456C23.3993 22.7848 23.5302 22.6869 23.6313 22.6341L23.1233 21.6605C22.8876 21.7835 22.6671 21.9638 22.4619 22.169L23.2384 22.9456ZM23.6628 22.6164C23.7559 22.5597 23.8267 22.5427 23.8971 22.5427V21.4445C23.6015 21.4445 23.3355 21.53 23.0918 21.6783L23.6628 22.6164ZM23.8971 22.5427C23.9558 22.5427 24.0317 22.5544 24.1358 22.597L24.5516 21.5805C24.3336 21.4913 24.1167 21.4445 23.8971 21.4445V22.5427ZM24.1358 22.597C24.2508 22.644 24.3848 22.7177 24.5475 22.8283L25.165 21.9202C24.9616 21.7819 24.7588 21.6653 24.5516 21.5805L24.1358 22.597ZM24.5384 22.822L26.9617 24.5425L27.5975 23.6471L25.1741 21.9265L24.5384 22.822ZM26.9671 24.5463C27.0868 24.6292 27.1459 24.7076 27.1797 24.7845L28.1849 24.3422C28.0577 24.0531 27.8532 23.824 27.5922 23.6433L26.9671 24.5463ZM27.1725 24.7673C27.2256 24.9002 27.2503 25.0136 27.2503 25.1345H28.3486C28.3486 24.8453 28.2854 24.5926 28.1921 24.3594L27.1725 24.7673ZM25.808 18.3036C25.808 17.9596 25.6799 17.5909 25.5111 17.2627C25.3367 16.9234 25.0927 16.5765 24.8037 16.2669L24.0009 17.0163C24.2244 17.2558 24.4087 17.5202 24.5344 17.7648C24.6659 18.0205 24.7098 18.2082 24.7098 18.3036H25.808ZM24.8049 16.2682C24.2905 15.7136 23.5326 15.192 22.6964 15.192V16.2902C23.0902 16.2902 23.577 16.5592 23.9997 17.015L24.8049 16.2682ZM28.3705 18.3036C28.3705 15.1669 25.8331 12.6295 22.6964 12.6295V13.7277C25.2265 13.7277 27.2723 15.7734 27.2723 18.3036H28.3705Z" fill="white"/>
</svg>
